<svg width="169" height="150" viewBox="0 0 169 150" fill="none" xmlns="http://www.w3.org/2000/svg">
<path d="M21.8255 21.5427C23.5961 11.1623 35.2315 5.78962 44.2813 11.1737L65 23.5L73.9147 22.5616C80.621 21.8557 87.3816 21.8299 94.0931 22.4847L104.5 23.5L127.871 11.258C136.996 6.47833 148.113 12.1071 149.661 22.291L163.754 114.991C166.514 133.147 152.46 149.5 134.094 149.5H35.5503C16.966 149.5 2.85267 132.776 5.97744 114.456L21.8255 21.5427Z" fill="white"/>
<circle cx="58" cy="63" r="12" fill="#D8D8D8"/>
<circle cx="115" cy="63" r="12" fill="#D8D8D8"/>
<circle cx="57" cy="64" r="10" fill="#1E1E1E"/>
<circle cx="116" cy="62" r="10" fill="#1E1E1E"/>
<circle cx="87" cy="89" r="4" fill="#474747" fill-opacity="0.25"/>
<rect x="112" y="53" width="7" height="7" rx="3.5" fill="white"/>
<rect x="50" y="56" width="7" height="7" rx="3.5" fill="white"/>
<path d="M44.7482 21.3C47.1526 22.3275 47.1831 25.725 44.7976 26.7956L40.9999 28.5L34.0244 31.4669C31.7084 32.4519 29.2819 30.3192 29.9617 27.8959L31.3499 22.9473C32.3286 19.4585 36.1528 17.6266 39.4848 19.0506L44.7482 21.3Z" fill="#1E1E1E"/>
<path d="M142.059 27.2755C142.821 29.7768 140.241 31.9875 137.886 30.8515L134.137 29.0429L127.376 25.6156C125.131 24.4777 125.2 21.2479 127.492 20.2079L132.173 18.084C135.472 16.5867 139.336 18.3335 140.392 21.7998L142.059 27.2755Z" fill="#1E1E1E"/>
<ellipse cx="44.5" cy="89" rx="9.5" ry="5" fill="#F4B5A4"/>
<ellipse cx="129.5" cy="89" rx="9.5" ry="5" fill="#F4B5A4"/>
</svg>
